<?xml version="1.0" encoding="UTF-8" standalone="no"?>
<!-- Created with Inkscape (http://www.inkscape.org/) -->

<svg
   xmlns:dc="http://purl.org/dc/elements/1.1/"
   xmlns:cc="http://creativecommons.org/ns#"
   xmlns:rdf="http://www.w3.org/1999/02/22-rdf-syntax-ns#"
   xmlns:svg="http://www.w3.org/2000/svg"
   xmlns="http://www.w3.org/2000/svg"
   xmlns:sodipodi="http://sodipodi.sourceforge.net/DTD/sodipodi-0.dtd"
   xmlns:inkscape="http://www.inkscape.org/namespaces/inkscape"
   width="500"
   height="500"
   viewBox="0 0 132.29166 132.29167"
   version="1.1"
   id="svg4996"
   inkscape:version="0.92.2 (5c3e80d, 2017-08-06)"
   sodipodi:docname="livedoc-logo-round-white.svg"
   inkscape:export-filename="C:\Development\Github\livedoc\assets\livedoc-logo-round.png"
   inkscape:export-xdpi="38"
   inkscape:export-ydpi="38">
  <defs
     id="defs4990" />
  <sodipodi:namedview
     id="base"
     pagecolor="#ffffff"
     bordercolor="#666666"
     borderopacity="1.0"
     inkscape:pageopacity="0.0"
     inkscape:pageshadow="2"
     inkscape:zoom="1.4945444"
     inkscape:cx="-8.4269518"
     inkscape:cy="277.48172"
     inkscape:document-units="px"
     inkscape:current-layer="layer1"
     showgrid="false"
     units="px"
     showguides="true"
     inkscape:guide-bbox="true"
     inkscape:window-width="1920"
     inkscape:window-height="1017"
     inkscape:window-x="1912"
     inkscape:window-y="-8"
     inkscape:window-maximized="1"
     inkscape:pagecheckerboard="true">
    <sodipodi:guide
       position="66.145832,66.145832"
       orientation="1,0"
       id="guide5000"
       inkscape:locked="false"
       inkscape:label=""
       inkscape:color="rgb(0,255,45)" />
    <sodipodi:guide
       position="66.145832,66.145832"
       orientation="0,1"
       id="guide5002"
       inkscape:locked="false"
       inkscape:label=""
       inkscape:color="rgb(2,255,0)" />
    <sodipodi:guide
       position="58.208333,132.29167"
       orientation="1,0"
       id="guide5008"
       inkscape:locked="false"
       inkscape:label=""
       inkscape:color="rgb(0,0,255)" />
    <sodipodi:guide
       position="74.083332,132.29167"
       orientation="1,0"
       id="guide5010"
       inkscape:locked="false"
       inkscape:label=""
       inkscape:color="rgb(0,0,255)" />
    <sodipodi:guide
       position="0,0"
       orientation="0,500"
       id="guide5575"
       inkscape:locked="false" />
    <sodipodi:guide
       position="132.29166,0"
       orientation="-500,0"
       id="guide5577"
       inkscape:locked="false" />
    <sodipodi:guide
       position="132.29166,132.29166"
       orientation="0,-500"
       id="guide5579"
       inkscape:locked="false" />
    <sodipodi:guide
       position="0,132.29166"
       orientation="500,0"
       id="guide5581"
       inkscape:locked="false" />
    <sodipodi:guide
       position="66.145832,50.270833"
       orientation="0,1"
       id="guide5595"
       inkscape:locked="false"
       inkscape:label=""
       inkscape:color="rgb(0,0,255)" />
    <sodipodi:guide
       position="44.314099,105.83333"
       orientation="0,1"
       id="guide5597"
       inkscape:locked="false"
       inkscape:label=""
       inkscape:color="rgb(255,160,0)" />
    <sodipodi:guide
       position="26.458333,66.145832"
       orientation="1,0"
       id="guide5599"
       inkscape:locked="false"
       inkscape:label=""
       inkscape:color="rgb(255,150,0)" />
    <sodipodi:guide
       position="66.145832,26.458333"
       orientation="0,1"
       id="guide5601"
       inkscape:locked="false"
       inkscape:label=""
       inkscape:color="rgb(255,124,0)" />
    <sodipodi:guide
       position="105.83333,66.145832"
       orientation="1,0"
       id="guide5603"
       inkscape:locked="false"
       inkscape:label=""
       inkscape:color="rgb(255,133,0)" />
    <sodipodi:guide
       position="66.145832,89.958332"
       orientation="0,1"
       id="guide5605"
       inkscape:locked="false"
       inkscape:label=""
       inkscape:color="rgb(0,0,255)" />
    <sodipodi:guide
       position="66.145832,23.8125"
       orientation="0,1"
       id="guide5607"
       inkscape:locked="false"
       inkscape:label=""
       inkscape:color="rgb(0,0,255)" />
    <sodipodi:guide
       position="100.54167,66.145832"
       orientation="1,0"
       id="guide5617"
       inkscape:locked="false"
       inkscape:label=""
       inkscape:color="rgb(0,0,255)" />
  </sodipodi:namedview>
  <metadata
     id="metadata4993">
    <rdf:RDF>
      <cc:Work
         rdf:about="">
        <dc:format>image/svg+xml</dc:format>
        <dc:type
           rdf:resource="http://purl.org/dc/dcmitype/StillImage" />
        <dc:title></dc:title>
      </cc:Work>
    </rdf:RDF>
  </metadata>
  <g
     inkscape:label="Calque 1"
     inkscape:groupmode="layer"
     id="layer1"
     transform="translate(0,-164.7083)"
     style="display:inline">
    <path
       style="stroke-width:0.99999994;fill:#ffffff"
       d="M 220 2.0097656 A 249.99998 249.99998 0 0 0 0 250 A 249.99998 249.99998 0 0 0 58.244141 410 L 220 410 L 220 396.95898 L 220 310 L 112.72656 310 A 150 150 0 0 1 100 250 A 150 150 0 0 1 220 103.19336 L 220 2.0097656 z M 280 2.1210938 L 280 103.04102 A 150 150 0 0 1 369.81641 160 L 369.76953 160 A 150 150 0 0 1 378.13086 172.28516 A 150 150 0 0 1 400 250 A 150 150 0 0 1 379.58984 325.09766 A 150 150 0 0 1 372.20703 336.63867 A 150 150 0 0 1 370.41211 338.99414 A 150 150 0 0 1 363.18555 348.13086 A 150 150 0 0 1 359.74219 351.81836 A 150 150 0 0 1 353.08789 358.69531 A 150 150 0 0 1 347.73242 363.38867 A 150 150 0 0 1 342.00586 368.22656 A 150 150 0 0 1 334.51172 373.57422 A 150 150 0 0 1 330.06641 376.62695 A 150 150 0 0 1 320.23047 382.25586 A 150 150 0 0 1 317.35156 383.83398 A 150 150 0 0 1 305.13281 389.28516 A 150 150 0 0 1 303.98828 389.77148 A 150 150 0 0 1 280 396.80664 L 280 396.95898 L 280 410 L 280 497.99023 A 249.99998 249.99998 0 0 0 500 250 A 249.99998 249.99998 0 0 0 280 2.1210938 z M 280 165.26172 L 280 334.75 A 90.000001 90.000001 0 0 0 340 250 A 90.000001 90.000001 0 0 0 280 165.26172 z "
       transform="matrix(0.26458333,0,0,0.26458333,0,164.7083)"
       id="path25" />
  </g>
  <g
     inkscape:groupmode="layer"
     id="layer2"
     inkscape:label="test"
     style="display:inline" />
</svg>
